<svg width="26" height="26" viewBox="0 0 26 26" fill="none" xmlns="http://www.w3.org/2000/svg">
<g clip-path="url(#clip0_4_7253)">
<path d="M20.0955 13.813C20.132 17.7477 23.5472 19.057 23.585 19.0737C23.5561 19.166 23.0393 20.9396 21.7857 22.7716C20.702 24.3555 19.5774 25.9335 17.8056 25.9662C16.0647 25.9982 15.5049 24.9338 13.5145 24.9338C11.5248 24.9338 10.9028 25.9335 9.25485 25.9983C7.54467 26.063 6.24234 24.2856 5.14971 22.7075C2.91696 19.4795 1.21068 13.586 3.50178 9.60779C4.63996 7.63219 6.67396 6.38116 8.88168 6.34908C10.561 6.31705 12.1461 7.4789 13.1728 7.4789C14.1988 7.4789 16.125 6.08167 18.15 6.28687C18.9977 6.32216 21.3773 6.62931 22.9053 8.86591C22.7822 8.94223 20.066 10.5235 20.0955 13.813ZM16.8236 4.15129C17.7316 3.05226 18.3427 1.5223 18.176 0C16.8672 0.0526003 15.2847 0.872106 14.3459 1.97054C13.5047 2.94325 12.7679 4.50013 12.9667 5.9923C14.4254 6.10516 15.9156 5.25102 16.8236 4.15129Z" fill="black"/>
</g>
<defs>
<clipPath id="clip0_4_7253">
<rect width="26" height="26" fill="white"/>
</clipPath>
</defs>
</svg>
