<svg width="26" height="26" viewBox="0 0 26 26" fill="none" xmlns="http://www.w3.org/2000/svg">
<g clip-path="url(#clip0_4_7264)">
<path d="M22.1 0H3.9C1.74609 0 0 1.74609 0 3.9V22.1C0 24.2539 1.74609 26 3.9 26H22.1C24.2539 26 26 24.2539 26 22.1V3.9C26 1.74609 24.2539 0 22.1 0Z" fill="white"/>
<path d="M19.1445 9.38438L9.17617 20.2617H5.51992C5.26601 20.2617 5.06289 20.0078 5.11367 19.7539L7.55117 4.31641C7.60195 3.96094 7.90664 3.70703 8.26211 3.70703H14.4574C18.723 3.85938 19.891 6.04297 19.1293 9.39453L19.1445 9.38438Z" fill="#002C8A"/>
<path d="M19.307 8.37891C20.8305 9.19141 21.1859 10.7148 20.6781 12.7461C20.018 15.7422 18.0375 17.0117 15.143 17.0625L14.3305 17.1133C14.0258 17.1133 13.8227 17.3164 13.7719 17.6211L13.1117 21.6328C13.0609 21.9883 12.7562 22.2422 12.4008 22.2422H9.3539C9.1 22.2422 8.89687 21.9883 8.94765 21.7344L10.0648 14.4727C10.1156 14.2188 19.307 8.37891 19.307 8.37891Z" fill="#009BE1"/>
<path d="M10.0039 14.8281L11.0195 8.37891C11.0528 8.22617 11.1356 8.08867 11.2549 7.98769C11.3743 7.88672 11.5235 7.82789 11.6797 7.82031H16.5547C17.7227 7.82031 18.5859 8.02344 19.2969 8.37891C19.043 10.6133 17.9766 14.2188 12.7969 14.3203H10.5625C10.3086 14.3203 10.0547 14.5234 10.0039 14.8281Z" fill="#001F6B"/>
</g>
<defs>
<clipPath id="clip0_4_7264">
<rect width="26" height="26" fill="white"/>
</clipPath>
</defs>
</svg>
